<svg width="110" height="37" viewBox="0 0 110 37" fill="none" xmlns="http://www.w3.org/2000/svg">
<path d="M109.39 25.9168C109.222 26.5045 109.064 27.0972 108.876 27.6849C108.116 30.1 106.437 31.7249 104.273 32.8708C101.132 34.5352 97.7243 35.3797 94.2473 35.9872C91.6148 36.4465 88.9626 36.7626 86.2857 36.7873C84.2361 36.8071 82.1864 36.9157 80.1368 36.8812C77.287 36.8318 74.4372 36.6886 71.5875 36.57C69.8539 36.5009 68.1154 36.4416 66.3868 36.3231C64.2482 36.1749 62.1047 36.0366 59.9761 35.7749C56.4941 35.3402 53.0072 34.9204 49.5549 34.2932C46.0088 33.6462 42.4923 32.8115 38.9906 31.9669C36.284 31.315 33.5973 30.5692 30.9352 29.7592C27.4285 28.6924 23.9466 27.5614 20.4696 26.3958C17.0815 25.2599 13.7131 24.0795 10.3547 22.8694C8.26058 22.1138 6.17141 21.3334 4.14151 20.4346C3.12903 19.9901 2.24496 19.2542 1.30657 18.6417C1.21273 18.5825 1.17322 18.4442 1.17322 18.2269C1.39053 18.2861 1.61278 18.3256 1.82022 18.4096C5.21326 19.7431 8.59148 21.1161 11.9993 22.4052C14.1823 23.23 16.4098 23.9511 18.6323 24.6722C21.2104 25.5068 23.7984 26.3168 26.3963 27.0774C29.0683 27.8578 31.7452 28.6282 34.4517 29.2851C38.0275 30.1494 41.623 30.9643 45.2334 31.6706C48.8981 32.3868 52.5874 32.9942 56.2768 33.5523C59.3192 34.0117 62.3813 34.3722 65.4435 34.6834C67.745 34.9204 70.0564 35.0291 72.3678 35.1575C74.3039 35.2661 76.2399 35.3057 78.1809 35.3896C79.2724 35.439 80.359 35.5575 81.4505 35.5674C82.1518 35.5773 82.8532 35.4341 83.5594 35.3847C85.7869 35.2365 88.0242 35.1427 90.2467 34.9402C91.9556 34.7871 93.6694 34.5895 95.3486 34.2487C97.7095 33.7647 100.075 33.2313 102.263 32.1793C104.007 31.3446 105.656 30.342 106.846 28.7566C108.259 26.8799 108.634 24.7709 107.977 22.5435C107.049 19.4122 105.439 16.6513 103.202 14.2658C102.703 13.7374 102.184 13.2237 101.67 12.7101C101.552 12.5915 101.433 12.4434 101.285 12.394C101.093 12.3298 100.796 12.2557 100.683 12.3545C100.559 12.4582 100.505 12.7891 100.579 12.9521C100.717 13.2632 100.935 13.5596 101.182 13.8016C101.661 14.2757 102.214 14.6708 102.668 15.1598C103.276 15.8167 103.814 16.5328 104.456 17.3181C103.799 17.5749 103.216 17.8367 102.609 18.0342C101.399 18.4195 100.139 18.6121 98.9096 18.2516C97.4576 17.8268 96.3562 16.923 95.6549 15.5302C94.3658 12.9768 94.1189 10.2505 94.1584 7.46001C94.1633 7.13404 94.2374 6.82782 94.6374 7.13404C96.1488 8.27987 97.9317 8.65523 99.7344 9.03058C100.806 9.25284 101.947 9.43557 102.885 9.94922C104.387 10.779 105.281 12.1619 105.207 13.9547C105.167 14.8635 105.459 15.5549 105.997 16.2513C107.35 18.0095 108.457 19.916 109.108 22.0545C109.227 22.4447 109.306 22.8447 109.405 23.2399C109.39 24.119 109.39 25.0179 109.39 25.9168Z" fill="black"/>
<path d="M95.0177 17.3922C94.9436 17.4268 94.914 17.4515 94.8794 17.4564C93.6398 17.496 92.3952 17.5058 91.1555 17.575C89.985 17.6392 88.8194 17.7676 87.6488 17.8466C86.2215 17.9454 84.7892 18.0047 83.3619 18.1034C82.6062 18.1578 81.8604 18.2714 81.1097 18.3455C79.87 18.4739 78.6254 18.5875 77.3858 18.7159C76.4078 18.8146 75.4299 18.9431 74.4471 19.027C72.9308 19.1554 71.4097 19.2542 69.8934 19.3727C68.9501 19.4468 68.0117 19.5555 67.0683 19.6345C66.0559 19.7234 65.0335 19.7777 64.021 19.8815C63.0184 19.9852 62.0208 20.1531 61.0182 20.2519C60.3563 20.3161 59.6896 20.3013 59.0228 20.3358C58.4894 20.3655 57.961 20.4247 57.4325 20.4741C56.4694 20.5581 55.5063 20.6519 54.5432 20.726C53.2443 20.8248 51.9503 20.9285 50.6514 20.9977C49.6734 21.052 48.6955 21.0421 47.7226 21.0964C47.0558 21.131 46.394 21.2693 45.7272 21.2792C44.9271 21.294 44.1221 21.1853 43.322 21.2001C42.6009 21.215 41.8798 21.3977 41.1587 21.3779C39.6573 21.3384 38.1559 21.2644 36.6643 21.1211C34.9604 20.9581 33.2515 20.7902 31.5772 20.4593C29.9968 20.1531 28.4558 19.5901 27.2359 18.4936C26.0802 17.4515 25.0331 16.2859 25.0875 14.5474C25.122 13.446 25.5666 12.4928 26.2728 11.7075C28.041 9.73691 30.2733 8.43304 32.6934 7.41562C33.3701 7.12916 34.0417 6.81801 34.7184 6.53155C34.9258 6.44265 35.153 6.40314 35.3703 6.34387C35.395 6.3982 35.4246 6.45253 35.4493 6.5118C34.9653 6.78838 34.5011 7.09953 34.0022 7.34153C32.1403 8.2503 30.461 9.4307 28.9497 10.8334C28.036 11.6828 27.3297 12.6904 27.3051 14.0288C27.2902 14.8388 27.6705 15.5352 28.2188 16.0093C28.925 16.6218 29.7795 17.0811 30.6191 17.5108C32.8218 18.6517 35.2518 18.8838 37.662 19.1851C38.0275 19.2295 38.3929 19.269 38.7584 19.2789C39.1634 19.2888 39.2375 19.0073 39.2523 18.6764C39.2622 18.3553 39.2424 18.0837 38.8325 18.0096C38.5609 17.9602 38.304 17.8367 38.0324 17.7577C36.6297 17.3626 36.042 16.3452 35.884 14.987C35.7309 13.688 35.7753 12.3941 36.4865 11.2581C36.8668 10.6556 37.3409 10.0431 37.9188 9.64307C40.6698 7.74653 44.127 8.73431 45.7519 11.1099C45.8507 11.2581 45.9347 11.4211 46.0779 11.673C45.2729 11.8458 44.5518 12.0039 43.8307 12.152C42.7145 12.3842 41.5983 12.6114 40.4772 12.8435C39.8252 12.9768 39.4351 13.4559 39.4795 14.0585C39.524 14.6215 39.9783 15.0759 40.6006 15.1154C41.4699 15.1747 42.3391 15.2043 43.2084 15.2487C44.4826 15.3179 45.7569 15.3969 47.0311 15.4759C47.1348 15.4809 47.2633 15.5204 47.3324 15.5945C47.9152 16.2168 47.5942 17.8565 46.8138 18.2121C45.6383 18.7504 44.3987 18.5875 43.1689 18.5331C42.8725 18.5183 42.5713 18.4837 42.2749 18.4689C41.8996 18.4541 41.6329 18.622 41.6329 19.0073C41.6329 19.4073 41.9737 19.3925 42.2552 19.3925C44.0678 19.3974 45.8853 19.4221 47.6979 19.3876C49.2734 19.353 50.844 19.2493 52.4195 19.1653C53.6147 19.1011 54.8099 19.1307 56.0002 18.8838C56.8053 18.7159 57.6597 18.8147 58.4944 18.7504C59.4179 18.6813 60.3316 18.5479 61.2552 18.464C62.4702 18.3553 63.6901 18.2911 64.9002 18.1677C66.209 18.0343 67.5128 17.812 68.8266 17.6985C70.6985 17.5305 72.5752 17.4367 74.452 17.2935C75.1089 17.2441 75.7658 17.1305 76.4227 17.0712C77.3808 16.9823 78.339 16.9082 79.3021 16.8292C80.3985 16.7403 81.49 16.6267 82.5864 16.5576C84.2212 16.4538 85.861 16.3896 87.4957 16.2958C89.0762 16.202 90.6517 16.0933 92.2272 15.9945C92.5631 15.9748 92.8989 15.9353 93.2348 15.9353C94.4201 15.9353 94.6473 16.118 95.0177 17.3922ZM36.6446 13.8362C37.6422 10.8482 39.682 9.66283 42.759 9.65789C41.4896 8.90224 39.3412 9.2282 37.899 10.3592C37.1681 10.9321 36.3038 12.9423 36.6446 13.8362Z" fill="black"/>
<path d="M0.980591 15.8809C1.48436 15.6932 1.98319 15.5104 2.48696 15.3228C4.28473 14.6461 6.09238 13.9794 7.88027 13.2781C9.48048 12.6508 11.0708 11.9989 12.6562 11.3371C15.264 10.2554 17.8618 9.15899 20.4696 8.07737C22.3316 7.3069 24.1787 6.50185 26.0703 5.80052C27.799 5.1634 29.572 4.64976 31.3204 4.06696C31.8983 3.87435 32.4564 3.60764 33.0342 3.41502C33.9479 3.11869 34.8715 2.84211 35.8 2.58529C37.0545 2.2445 38.3041 1.87408 39.5783 1.63207C40.818 1.39501 42.0971 1.36537 43.3467 1.14806C45.7421 0.733192 48.1523 0.743069 50.5674 0.792458C51.5799 0.812214 52.5874 0.980137 53.595 1.0641C55.2199 1.19745 56.8596 1.23696 58.4697 1.47403C60.0304 1.70122 61.5664 2.10621 63.1123 2.45688C64.673 2.81248 66.2485 3.12857 67.7796 3.59283C69.1427 4.0077 70.4515 4.60531 71.785 5.11402C72.027 5.20785 72.2937 5.23749 72.5308 5.3412C73.9236 5.97339 75.3262 6.58581 76.6894 7.27726C78.2847 8.08725 79.8799 8.91205 81.411 9.83069C82.7692 10.6505 84.0583 11.5889 85.3523 12.5125C85.9597 12.9422 86.508 13.4559 87.0809 13.9349C87.1895 14.0238 87.2686 14.1424 87.2982 14.3399C87.0019 14.1671 86.7055 13.9942 86.4092 13.8263C84.4978 12.7397 82.5667 11.6877 80.6751 10.5666C78.739 9.42075 76.6499 8.62065 74.6002 7.73658C73.6272 7.31677 72.6148 7.00068 71.6418 6.58581C69.5428 5.68693 67.3548 5.0745 65.1521 4.53616C63.053 4.02251 60.954 3.50393 58.8302 3.11375C57.2251 2.81742 55.5854 2.64949 53.9506 2.56553C51.6441 2.447 49.3277 2.40749 47.0163 2.43218C45.8112 2.447 44.6012 2.62974 43.406 2.81742C41.8403 3.06436 40.2846 3.3607 38.7387 3.70642C37.9238 3.88916 37.1483 4.22501 36.3532 4.49171C34.8122 5.01523 33.2565 5.48937 31.7452 6.07216C29.4782 6.94635 27.2359 7.88475 24.9936 8.81821C23.0625 9.62325 21.1512 10.4727 19.225 11.2877C17.6791 11.9396 16.0937 12.5125 14.5676 13.2138C11.6981 14.5325 8.73964 15.5993 5.7911 16.7205C4.58107 17.1798 3.59328 17.16 2.50178 16.6019C2.02764 16.3599 1.49918 16.2167 0.995408 16.0241C0.98553 15.9796 0.980591 15.9303 0.980591 15.8809Z" fill="black"/>
<path d="M46.1816 12.0925C46.4928 13.0013 46.8138 13.9101 47.1052 14.8238C47.1249 14.883 46.9175 15.1053 46.8187 15.1053C46.0779 15.0855 45.3321 15.0411 44.5962 14.967C44.4925 14.9571 44.3048 14.7003 44.3344 14.6312C44.7197 13.6582 45.3914 12.8828 45.9791 12.0481C46.0433 12.0629 46.1125 12.0777 46.1816 12.0925Z" fill="black"/>
<path d="M40.5908 14.5572C40.1117 14.3893 40.0475 14.0436 40.2204 13.7275C40.3587 13.4805 40.6451 13.2286 40.9118 13.1546C41.6971 12.9323 42.5071 12.7841 43.3121 12.6261C43.4257 12.6014 43.6035 12.631 43.6628 12.7051C43.7171 12.7693 43.6826 12.957 43.6233 13.0508C43.3121 13.5596 42.996 14.0633 42.6553 14.5523C42.4923 14.7894 41.3514 14.898 41.1341 14.7004C41.055 14.6264 41.0402 14.4486 41.0452 14.3201C41.0501 14.1374 41.0995 13.9547 41.1242 13.7769C41.0057 13.7571 40.7884 13.6978 40.7785 13.7275C40.7093 13.8954 40.6797 14.0831 40.6402 14.2658C40.6254 14.335 40.6155 14.4041 40.5908 14.5572Z" fill="black"/>
<path d="M42.9861 14.7251C43.4454 14.009 43.88 13.2731 44.3838 12.5866C44.527 12.394 44.8777 12.3495 45.1296 12.2408C45.1592 12.2853 45.1888 12.3347 45.2234 12.3791C44.7196 13.1545 44.2307 13.9398 43.6973 14.6906C43.5936 14.8338 43.3022 14.8486 43.0947 14.9177C43.0552 14.8535 43.0207 14.7893 42.9861 14.7251Z" fill="black"/>
<path d="M36.6445 13.8362C36.2988 12.9423 37.168 10.9321 37.899 10.3592C39.3412 9.22818 41.4896 8.90221 42.7589 9.65787C39.6869 9.65787 37.6422 10.8482 36.6445 13.8362Z" fill="white"/>
</svg>
